<svg xmlns="http://www.w3.org/2000/svg" xmlns:xlink="http://www.w3.org/1999/xlink" width="273" zoomAndPan="magnify" viewBox="0 0 204.75 180.749997" height="241" preserveAspectRatio="xMidYMid meet" version="1.2"><defs><clipPath id="cbd849c3d4"><path d="M 0.015625 0 L 203.953125 0 L 203.953125 101 L 0.015625 101 Z M 0.015625 0 "/></clipPath><clipPath id="23f5e14d53"><path d="M 0.015625 145 L 203.953125 145 L 203.953125 179.847656 L 0.015625 179.847656 Z M 0.015625 145 "/></clipPath></defs><g id="7bd98728dd"><g clip-rule="nonzero" clip-path="url(#cbd849c3d4)"><path style=" stroke:none;fill-rule:nonzero;fill:#153129;fill-opacity:1;" d="M 152.117188 95.296875 C 152.84375 94.113281 150.582031 91.398438 147.0625 89.210938 C 145.328125 88.132812 143.617188 87.402344 142.261719 87.050781 C 146.535156 86.195312 150.632812 85.164062 154.503906 84.03125 C 154.152344 85.316406 156.414062 87.804688 159.78125 89.789062 C 163.351562 91.902344 166.824219 92.65625 167.527344 91.476562 C 168.230469 90.292969 165.917969 87.601562 162.347656 85.492188 C 160.335938 84.285156 158.351562 83.53125 156.890625 83.304688 C 161.265625 81.945312 165.339844 80.488281 169.035156 79.054688 C 169.058594 80.386719 171.222656 82.675781 174.339844 84.535156 C 177.910156 86.648438 181.378906 87.402344 182.082031 86.21875 C 182.785156 85.039062 180.472656 82.347656 176.902344 80.238281 C 174.917969 79.054688 172.957031 78.300781 171.5 78.074219 C 175.570312 76.390625 179.066406 74.78125 181.882812 73.398438 C 183.0625 74.328125 186.65625 73.648438 190.453125 71.738281 C 194.652344 69.601562 197.46875 66.761719 196.765625 65.355469 C 196.058594 63.972656 192.089844 64.550781 187.890625 66.6875 C 184.070312 68.621094 181.402344 71.160156 181.480469 72.644531 C 178.765625 73.976562 175.371094 75.5625 171.449219 77.195312 C 172.480469 76.164062 173.609375 74.53125 174.566406 72.542969 C 176.351562 68.796875 176.777344 65.277344 175.519531 64.675781 C 174.265625 64.097656 171.824219 66.636719 170.039062 70.40625 C 168.304688 74.050781 167.878906 77.472656 168.984375 78.199219 C 165.339844 79.660156 161.292969 81.117188 156.917969 82.449219 C 157.949219 81.417969 159.078125 79.785156 160.035156 77.796875 C 161.820312 74.050781 162.246094 70.53125 160.988281 69.929688 C 159.734375 69.351562 157.292969 71.890625 155.507812 75.660156 C 153.898438 79.054688 153.398438 82.25 154.253906 83.253906 C 150.304688 84.410156 146.105469 85.441406 141.757812 86.296875 L 141.957031 85.792969 C 142.964844 84.789062 144.019531 83.253906 144.925781 81.417969 C 146.332031 78.578125 146.960938 75.835938 146.609375 74.453125 L 154.753906 54.59375 C 158.828125 52.933594 160.988281 48.6875 160.988281 48.6875 C 160.988281 48.6875 160.335938 49.0625 157.117188 48.863281 L 159.054688 44.160156 C 164.484375 43.429688 167.402344 37.699219 167.402344 37.699219 C 167.402344 37.699219 166.519531 38.203125 161.695312 37.726562 L 163.503906 33.300781 C 169.714844 32.570312 172.175781 25.558594 172.175781 25.558594 C 172.175781 25.558594 171.371094 26.160156 166.445312 26.335938 C 169.585938 19.496094 173.105469 14.292969 177.003906 10.699219 C 180.195312 7.859375 184.921875 5.871094 191.132812 4.742188 L 191.132812 -0.0117188 L 136.90625 -0.0117188 L 136.90625 4.765625 C 137.9375 4.941406 138.664062 5.066406 139.117188 5.144531 C 145.074219 6.097656 149.324219 7.707031 151.8125 9.996094 C 154.300781 12.28125 155.585938 14.671875 155.585938 17.183594 C 155.585938 20.351562 154.226562 25.558594 151.535156 32.796875 L 151.261719 30.359375 C 152.417969 29 155.132812 25.203125 153.546875 21.535156 C 151.5625 16.933594 151.789062 15.929688 151.789062 15.929688 C 151.789062 15.929688 144.347656 23.21875 150.355469 30.382812 L 150.832031 34.632812 C 150.40625 35.738281 149.953125 36.871094 149.476562 38.050781 L 146.535156 45.214844 C 146.308594 45.542969 146.082031 45.894531 145.832031 46.222656 L 144.273438 40.464844 C 145.152344 38.65625 146.609375 34.757812 144.421875 31.714844 C 141.507812 27.644531 141.507812 26.636719 141.507812 26.636719 C 141.507812 26.636719 135.574219 35.6875 143.644531 41.394531 L 145.175781 47.128906 C 143.265625 49.84375 141.203125 52.632812 138.941406 55.421875 L 138.515625 49.164062 C 139.445312 47.429688 141.078125 43.507812 138.992188 40.363281 C 136.203125 36.214844 136.226562 35.1875 136.226562 35.1875 C 136.226562 35.1875 130.117188 43.910156 137.710938 49.867188 L 138.164062 56.378906 C 136.050781 58.941406 133.8125 61.507812 131.398438 64.046875 L 130.871094 56.328125 C 131.652344 54.894531 133.710938 50.421875 131.300781 47.078125 C 128.382812 43.003906 128.382812 42 128.382812 42 C 128.382812 42 122.699219 50.671875 130.042969 56.402344 L 130.621094 64.902344 C 130.445312 65.078125 130.269531 65.277344 130.066406 65.453125 C 126.949219 66.257812 124.210938 67.289062 121.820312 68.597656 L 122.046875 66.585938 C 123.28125 65 125.492188 61.480469 124.007812 58.0625 C 121.996094 53.488281 122.199219 52.480469 122.199219 52.480469 C 122.199219 52.480469 118.425781 56.226562 118.503906 60.980469 C 117.824219 57.183594 116.742188 54.570312 116.691406 54.417969 L 116.316406 53.539062 L 115.535156 54.117188 C 112.316406 56.503906 109.703125 58.992188 107.691406 61.558594 C 105.503906 56 102.160156 52.15625 102.011719 51.980469 L 101.382812 51.25 L 100.828125 52.03125 C 97.285156 57.15625 95.171875 62.035156 94.519531 66.636719 C 93.789062 65.65625 92.960938 64.699219 92.03125 63.769531 C 87.328125 59.070312 81.875 56.804688 81.648438 56.707031 L 80.992188 56.429688 C 81.472656 55.925781 81.898438 55.398438 82.277344 54.820312 C 86.601562 48.359375 84.1875 39.007812 84.085938 38.628906 C 84.085938 38.605469 84.085938 38.605469 84.058594 38.605469 C 84.058594 38.578125 84.035156 38.578125 84.035156 38.554688 C 84.011719 38.527344 84.011719 38.503906 83.984375 38.480469 C 83.984375 38.480469 83.960938 38.453125 83.960938 38.453125 C 83.933594 38.429688 83.910156 38.429688 83.882812 38.402344 C 83.859375 38.402344 83.859375 38.378906 83.835938 38.378906 C 83.785156 38.351562 83.757812 38.351562 83.707031 38.351562 C 83.660156 38.351562 83.632812 38.378906 83.582031 38.378906 C 83.582031 38.378906 83.558594 38.378906 83.558594 38.402344 C 83.53125 38.429688 83.507812 38.429688 83.480469 38.453125 C 83.480469 38.453125 83.457031 38.480469 83.457031 38.480469 C 83.433594 38.503906 83.433594 38.527344 83.40625 38.554688 C 83.40625 38.578125 83.382812 38.578125 83.382812 38.605469 C 83.382812 38.605469 83.382812 38.628906 83.355469 38.628906 C 83.355469 38.679688 82.148438 44.8125 76.417969 48.359375 C 73.050781 50.445312 71.992188 53.789062 71.714844 56.402344 L 71.0625 54.894531 C 70.382812 52.910156 69.578125 50.972656 68.574219 49.136719 L 63.871094 38.203125 C 65.179688 36.59375 66.613281 34.230469 67.167969 31.085938 C 68.046875 26.136719 66.4375 20.753906 62.441406 15.097656 C 62.414062 15.046875 62.363281 15.023438 62.3125 14.996094 C 62.289062 14.996094 62.289062 14.972656 62.265625 14.972656 C 62.214844 14.949219 62.1875 14.949219 62.136719 14.949219 C 62.136719 14.949219 62.113281 14.949219 62.113281 14.949219 C 62.113281 14.949219 62.113281 14.949219 62.089844 14.949219 C 62.089844 14.949219 62.0625 14.949219 62.0625 14.949219 C 62.011719 14.949219 61.960938 14.972656 61.9375 14.996094 C 61.886719 15.023438 61.863281 15.074219 61.835938 15.125 C 61.835938 15.125 61.835938 15.125 61.8125 15.148438 C 61.785156 15.222656 59.75 19.625 59.296875 26.488281 C 57.964844 22.363281 57.3125 19.070312 57.3125 16.554688 C 57.3125 13.4375 58.519531 10.898438 60.929688 8.914062 C 63.34375 6.929688 68.625 5.546875 76.746094 4.765625 L 76.746094 -0.0117188 L 5.019531 -0.0117188 L 5.019531 4.765625 C 10.375 5.191406 14.625 6.171875 17.789062 7.683594 C 20.957031 9.191406 23.597656 11.277344 25.761719 13.96875 C 27.144531 15.703125 29.53125 20.453125 32.898438 28.195312 L 49.367188 66.207031 C 47.582031 75.5625 53.890625 86.972656 55.878906 90.242188 C 52.058594 88.808594 48.4375 87.328125 45.144531 85.894531 C 46.878906 71.0625 35.714844 61.15625 35.714844 61.15625 C 34.054688 70.785156 41.800781 82.171875 44.3125 85.542969 C 41.449219 84.308594 38.859375 83.101562 36.546875 82.023438 C 36.167969 67.140625 23.800781 58.894531 23.800781 58.894531 C 23.496094 68.246094 31.917969 77.972656 35.238281 81.417969 C 33.679688 80.664062 32.273438 79.984375 31.066406 79.382812 C 28.375 76.667969 18.09375 67.363281 5.949219 67.867188 C 5.949219 67.867188 19.601562 78.980469 30.410156 79.984375 C 31.667969 80.613281 33.175781 81.367188 34.886719 82.171875 C 29.882812 81.769531 17.414062 81.492188 10.476562 87.503906 C 10.476562 87.503906 24.605469 91.875 36.394531 82.902344 C 38.632812 83.957031 41.195312 85.113281 43.960938 86.320312 C 39.789062 86.699219 26.816406 88.382812 20.554688 95.546875 L 0.015625 95.546875 L 0.015625 100.726562 L 203.953125 100.726562 L 203.953125 95.523438 L 151.914062 95.523438 C 151.988281 95.445312 152.066406 95.398438 152.117188 95.296875 Z M 144.421875 93.460938 C 146.007812 94.441406 147.566406 95.144531 148.871094 95.523438 L 145.878906 95.523438 C 143.644531 94.113281 141.457031 92.984375 139.292969 92.152344 L 140.199219 89.941406 C 141.105469 91.046875 142.585938 92.328125 144.421875 93.460938 Z M 80.390625 68.144531 C 78.933594 67.515625 77.5 67.011719 76.191406 66.636719 L 73.453125 60.324219 C 75.1875 60 76.746094 59.472656 78.101562 58.71875 C 79.082031 58.1875 79.960938 57.535156 80.742188 56.757812 L 80.667969 57.308594 C 80.089844 61.28125 79.988281 64.902344 80.390625 68.144531 Z M 119.9375 88.308594 C 124.613281 86.546875 128.332031 83.050781 130.945312 77.925781 C 134.015625 77.445312 137.484375 77.445312 141.304688 77.925781 C 140.476562 79.660156 138.339844 83.554688 134.945312 86.972656 C 133.613281 88.28125 132.253906 89.386719 130.847656 90.292969 C 129.289062 90.242188 127.753906 90.367188 126.246094 90.671875 C 124.410156 91.046875 122.800781 91.675781 121.394531 92.40625 C 121.320312 92.128906 121.269531 91.851562 121.167969 91.601562 C 121.21875 91.574219 121.269531 91.550781 121.320312 91.523438 C 121.695312 91.347656 122.046875 91.199219 122.398438 91.023438 C 122.75 90.847656 123.101562 90.671875 123.457031 90.46875 C 123.808594 90.269531 124.160156 90.09375 124.484375 89.890625 L 125.492188 89.261719 L 126.472656 88.609375 C 126.800781 88.382812 127.101562 88.132812 127.425781 87.90625 L 127.90625 87.554688 L 128.359375 87.175781 C 128.660156 86.925781 128.960938 86.671875 129.238281 86.421875 C 129.789062 85.867188 130.367188 85.367188 130.898438 84.789062 C 131.976562 83.679688 132.882812 82.425781 133.738281 81.167969 C 132.683594 82.273438 131.625 83.355469 130.417969 84.257812 C 129.839844 84.738281 129.210938 85.140625 128.609375 85.566406 C 128.308594 85.769531 127.980469 85.96875 127.652344 86.144531 L 127.175781 86.421875 L 126.671875 86.671875 C 126.347656 86.847656 126.019531 87.023438 125.691406 87.175781 L 124.6875 87.652344 L 123.65625 88.082031 C 123.304688 88.230469 122.976562 88.332031 122.625 88.457031 C 122.273438 88.582031 121.921875 88.683594 121.570312 88.808594 C 121.21875 88.910156 120.867188 89.011719 120.515625 89.113281 C 120.4375 89.136719 120.386719 89.136719 120.3125 89.160156 C 120.210938 88.886719 120.085938 88.582031 119.9375 88.308594 Z M 134.542969 64.777344 L 139.144531 63.394531 L 137.082031 68.445312 C 137.03125 68.445312 137.007812 68.445312 136.957031 68.445312 C 135.875 68.34375 134.894531 68.523438 134.015625 68.898438 C 134.390625 66.9375 134.492188 65.628906 134.492188 65.53125 Z M 134.417969 74.90625 L 133.914062 76.113281 C 133.160156 76.164062 132.429688 76.214844 131.703125 76.289062 C 131.902344 75.835938 132.078125 75.359375 132.253906 74.90625 C 133.035156 75.007812 133.761719 74.984375 134.417969 74.90625 Z M 85.191406 88.683594 C 85.066406 88.632812 84.964844 88.609375 84.839844 88.558594 C 84.460938 88.433594 84.085938 88.28125 83.707031 88.179688 C 83.332031 88.082031 82.953125 87.953125 82.578125 87.855469 L 81.421875 87.578125 L 80.265625 87.351562 C 79.886719 87.277344 79.484375 87.226562 79.109375 87.175781 L 78.53125 87.101562 L 77.953125 87.050781 C 77.574219 87.023438 77.171875 86.972656 76.796875 86.949219 C 76.015625 86.925781 75.234375 86.875 74.480469 86.925781 C 72.949219 86.925781 71.414062 87.175781 69.90625 87.425781 C 71.441406 87.402344 72.949219 87.402344 74.433594 87.628906 C 75.1875 87.703125 75.914062 87.878906 76.644531 88.003906 C 77.019531 88.082031 77.375 88.179688 77.726562 88.28125 L 78.277344 88.433594 L 78.804688 88.609375 C 79.15625 88.734375 79.511719 88.808594 79.863281 88.960938 L 80.894531 89.335938 L 81.921875 89.765625 C 82.25 89.914062 82.578125 90.09375 82.929688 90.242188 C 83.257812 90.394531 83.582031 90.59375 83.910156 90.746094 C 84.035156 90.820312 84.1875 90.894531 84.3125 90.972656 C 84.136719 91.523438 83.984375 92.101562 83.835938 92.679688 C 78.980469 89.992188 73.375 89.589844 67.34375 91.550781 C 64.828125 89.714844 62.390625 87.277344 60.027344 84.210938 C 61.835938 83.582031 66.109375 82.324219 70.914062 82.324219 L 70.9375 82.324219 C 72.796875 82.324219 74.558594 82.5 76.191406 82.875 C 77.273438 84.03125 78.429688 85.011719 79.710938 85.84375 C 81.671875 87.125 83.632812 87.90625 85.417969 88.355469 C 85.316406 88.457031 85.265625 88.558594 85.191406 88.683594 Z M 67.570312 93.035156 C 73.550781 91.023438 78.90625 91.425781 83.558594 94.191406 C 83.507812 94.566406 83.457031 94.917969 83.433594 95.296875 C 83.332031 95.269531 83.230469 95.246094 83.15625 95.21875 C 82.277344 94.96875 81.371094 94.742188 80.464844 94.59375 C 80.011719 94.492188 79.558594 94.441406 79.109375 94.367188 C 78.65625 94.316406 78.203125 94.238281 77.75 94.214844 C 76.84375 94.140625 75.914062 94.140625 75.011719 94.140625 C 75.914062 94.214844 76.820312 94.289062 77.726562 94.464844 C 78.175781 94.542969 78.605469 94.640625 79.058594 94.742188 C 79.484375 94.84375 79.9375 94.945312 80.363281 95.09375 C 80.816406 95.21875 81.269531 95.371094 81.722656 95.523438 L 62.0625 95.523438 C 63.621094 94.617188 65.507812 93.710938 67.570312 93.035156 Z M 127.90625 95.523438 C 127.980469 95.496094 128.054688 95.472656 128.132812 95.445312 C 128.960938 95.195312 129.742188 94.867188 130.519531 94.542969 C 129.714844 94.792969 128.886719 95.042969 128.054688 95.195312 C 127.652344 95.296875 127.226562 95.347656 126.824219 95.421875 C 126.648438 95.445312 126.445312 95.472656 126.269531 95.496094 L 121.898438 95.496094 C 121.871094 94.96875 121.796875 94.441406 121.71875 93.914062 C 123.078125 93.160156 124.6875 92.480469 126.546875 92.101562 C 131.5 91.097656 136.957031 92.230469 142.863281 95.496094 L 127.90625 95.496094 Z M 144.976562 49.089844 L 142.585938 54.921875 L 139.972656 55.726562 C 141.757812 53.488281 143.417969 51.273438 144.976562 49.089844 Z M 139.042969 56.882812 L 142.183594 55.925781 L 139.996094 61.257812 C 139.621094 61.757812 139.34375 62.1875 139.144531 62.488281 L 132.230469 64.574219 C 134.667969 62.035156 136.929688 59.445312 139.042969 56.882812 Z M 132.882812 66.382812 C 132.632812 68.269531 131.878906 72.644531 129.765625 76.945312 C 127.25 82.023438 123.730469 85.367188 119.230469 86.972656 C 119.054688 86.699219 118.878906 86.421875 118.703125 86.144531 C 118.980469 86.019531 119.257812 85.867188 119.507812 85.71875 C 120.4375 85.164062 121.269531 84.511719 122.023438 83.757812 C 122.199219 83.582031 122.375 83.378906 122.550781 83.179688 L 122.800781 82.875 L 123.027344 82.574219 L 123.480469 81.945312 L 123.882812 81.292969 L 124.082031 80.964844 C 124.132812 80.867188 124.210938 80.738281 124.261719 80.613281 L 124.585938 79.933594 C 124.789062 79.484375 124.964844 79.003906 125.140625 78.527344 C 124.863281 78.953125 124.613281 79.382812 124.335938 79.785156 L 123.882812 80.363281 C 123.808594 80.464844 123.730469 80.5625 123.65625 80.664062 L 123.40625 80.941406 L 122.902344 81.492188 L 122.375 81.996094 L 122.097656 82.25 L 121.820312 82.472656 C 121.621094 82.625 121.445312 82.777344 121.242188 82.902344 C 120.464844 83.453125 119.609375 83.882812 118.753906 84.183594 C 118.328125 84.335938 117.898438 84.460938 117.472656 84.5625 C 117.320312 84.386719 117.171875 84.210938 117.019531 84.03125 C 117.144531 83.933594 117.269531 83.808594 117.371094 83.707031 C 117.847656 83.253906 118.328125 82.777344 118.777344 82.296875 C 119.683594 81.34375 120.5625 80.363281 121.367188 79.308594 C 121.769531 78.804688 122.148438 78.25 122.550781 77.722656 C 122.902344 77.167969 123.304688 76.640625 123.632812 76.089844 C 124.335938 74.984375 124.9375 73.828125 125.515625 72.667969 C 124.839844 73.777344 124.109375 74.855469 123.304688 75.863281 C 122.925781 76.390625 122.5 76.867188 122.074219 77.371094 C 121.644531 77.847656 121.21875 78.351562 120.765625 78.804688 C 119.886719 79.734375 118.957031 80.613281 117.976562 81.46875 C 117.496094 81.894531 116.996094 82.296875 116.492188 82.675781 C 116.339844 82.800781 116.191406 82.902344 116.039062 83.027344 C 115.160156 82.199219 114.230469 81.417969 113.222656 80.765625 C 113.652344 79.355469 114.304688 77.847656 115.285156 76.390625 C 118.601562 71.4375 124.511719 68.09375 132.882812 66.382812 Z M 121.191406 67.265625 L 120.964844 69.148438 C 120.210938 69.601562 119.484375 70.082031 118.828125 70.582031 C 119.003906 69.375 119.105469 68.121094 119.105469 66.785156 C 119.105469 65.554688 119.03125 64.375 118.90625 63.242188 C 119.257812 64.550781 119.984375 65.90625 121.191406 67.265625 Z M 115.6875 55.953125 C 116.316406 57.761719 117.574219 62.035156 117.574219 66.835938 C 117.574219 68.699219 117.398438 70.457031 117.019531 72.089844 C 115.863281 73.171875 114.882812 74.328125 114.027344 75.609375 C 113.046875 77.09375 112.367188 78.578125 111.914062 79.984375 C 110.660156 79.308594 109.328125 78.753906 107.917969 78.351562 C 109.953125 73.828125 110.105469 68.722656 108.320312 63.292969 C 110.179688 60.753906 112.644531 58.316406 115.6875 55.953125 Z M 101.558594 53.765625 C 102.714844 55.273438 105.277344 58.894531 106.8125 63.441406 C 108.621094 68.796875 108.496094 73.675781 106.460938 78 C 105.90625 77.898438 105.355469 77.796875 104.800781 77.75 C 104.902344 77.167969 104.953125 76.589844 105.003906 76.011719 L 105.027344 75.636719 L 105.027344 75.257812 C 105.027344 75.007812 105.027344 74.757812 105.027344 74.503906 C 105.003906 74.003906 105.003906 73.5 104.925781 72.996094 C 104.851562 71.992188 104.625 71.035156 104.375 70.082031 C 104.472656 71.0625 104.523438 72.042969 104.449219 73.023438 C 104.449219 73.5 104.375 74.003906 104.324219 74.480469 C 104.296875 74.730469 104.25 74.957031 104.199219 75.183594 L 104.148438 75.535156 L 104.070312 75.886719 C 103.945312 76.492188 103.769531 77.09375 103.570312 77.671875 C 103.269531 77.648438 102.964844 77.648438 102.640625 77.648438 C 102.464844 77.648438 102.289062 77.648438 102.085938 77.671875 C 102.109375 77.296875 102.160156 76.945312 102.1875 76.566406 C 102.289062 75.257812 102.3125 73.925781 102.289062 72.621094 C 102.289062 71.964844 102.238281 71.3125 102.210938 70.660156 C 102.160156 70.003906 102.109375 69.351562 102.011719 68.699219 C 101.859375 67.390625 101.609375 66.132812 101.308594 64.851562 C 101.484375 66.132812 101.609375 67.414062 101.632812 68.722656 C 101.660156 69.375 101.632812 70.003906 101.632812 70.660156 C 101.609375 71.3125 101.582031 71.941406 101.53125 72.59375 C 101.433594 73.875 101.28125 75.160156 101.054688 76.414062 C 100.980469 76.867188 100.878906 77.296875 100.804688 77.75 C 99.847656 77.847656 98.917969 78 97.988281 78.226562 C 97.207031 76.84375 96.554688 75.234375 96.152344 73.347656 C 95.023438 67.464844 96.832031 60.878906 101.558594 53.765625 Z M 82 58.539062 C 83.734375 59.371094 87.628906 61.507812 91.050781 64.902344 C 92.355469 66.234375 93.464844 67.589844 94.367188 69 C 94.316406 70.558594 94.445312 72.089844 94.746094 73.574219 C 95.148438 75.484375 95.800781 77.167969 96.554688 78.578125 C 96.101562 78.730469 95.675781 78.878906 95.246094 79.054688 C 95.222656 78.953125 95.199219 78.878906 95.171875 78.777344 C 95.046875 78.402344 94.945312 78.023438 94.820312 77.648438 C 94.695312 77.269531 94.570312 76.894531 94.417969 76.542969 L 93.992188 75.433594 L 93.511719 74.355469 C 93.363281 74.003906 93.160156 73.648438 92.984375 73.296875 L 92.707031 72.769531 L 92.40625 72.265625 C 92.207031 71.941406 92.03125 71.589844 91.804688 71.261719 C 91.375 70.609375 90.949219 69.953125 90.472656 69.351562 C 89.566406 68.09375 88.484375 66.988281 87.378906 65.933594 C 88.285156 67.164062 89.164062 68.394531 89.84375 69.726562 C 90.21875 70.382812 90.523438 71.0625 90.824219 71.738281 C 90.972656 72.089844 91.101562 72.445312 91.226562 72.769531 L 91.425781 73.296875 L 91.601562 73.828125 C 91.703125 74.179688 91.855469 74.53125 91.929688 74.882812 L 92.230469 75.964844 L 92.484375 77.042969 C 92.558594 77.394531 92.609375 77.773438 92.683594 78.125 C 92.757812 78.476562 92.785156 78.855469 92.835938 79.207031 C 92.886719 79.507812 92.910156 79.835938 92.933594 80.136719 C 92.808594 80.210938 92.683594 80.289062 92.53125 80.363281 C 90.847656 75.460938 87.277344 71.539062 81.949219 68.824219 C 81.519531 65.832031 81.519531 62.363281 82 58.539062 Z M 91.300781 81.316406 C 90.722656 81.746094 90.167969 82.199219 89.640625 82.675781 C 89.316406 82.375 89.011719 82.097656 88.6875 81.796875 C 87.707031 80.914062 86.675781 80.109375 85.59375 79.332031 C 85.066406 78.929688 84.511719 78.578125 83.960938 78.226562 C 83.40625 77.875 82.855469 77.523438 82.277344 77.21875 C 81.144531 76.566406 79.960938 76.011719 78.78125 75.484375 C 79.914062 76.113281 81.019531 76.792969 82.074219 77.546875 C 82.601562 77.898438 83.105469 78.328125 83.632812 78.703125 C 84.136719 79.105469 84.640625 79.507812 85.117188 79.933594 C 86.097656 80.789062 87 81.671875 87.882812 82.601562 C 88.160156 82.902344 88.460938 83.230469 88.738281 83.53125 C 87.757812 84.5625 86.875 85.691406 86.121094 86.925781 C 84.363281 86.523438 82.402344 85.816406 80.464844 84.535156 C 75.511719 81.242188 72.144531 75.335938 70.460938 66.964844 C 72.371094 67.214844 76.746094 67.96875 81.070312 70.105469 C 86.375 72.746094 89.792969 76.492188 91.300781 81.316406 Z M 83.910156 41.519531 C 84.335938 44.765625 84.511719 50.320312 81.722656 54.46875 C 79.914062 57.15625 77.097656 58.867188 73.351562 59.597656 C 81.070312 52.15625 83.28125 45.214844 83.910156 41.519531 Z M 76.871094 49.039062 C 80.164062 47 82.023438 44.1875 83.03125 42.050781 C 82.25 45.769531 79.914062 52.230469 72.875 59.019531 L 72.421875 57.960938 C 72.445312 55.449219 73.097656 51.351562 76.871094 49.039062 Z M 66.4375 30.960938 C 65.960938 33.753906 64.703125 35.914062 63.519531 37.421875 L 63.246094 36.792969 C 63.09375 36.441406 62.941406 36.117188 62.816406 35.765625 C 64.300781 28.472656 63.320312 20.378906 62.792969 16.933594 C 65.984375 21.886719 67.191406 26.613281 66.4375 30.960938 Z M 61.988281 16.632812 C 62.488281 19.597656 63.496094 27.34375 62.289062 34.53125 C 61.382812 32.34375 60.578125 30.308594 59.925781 28.421875 C 60.050781 22.792969 61.285156 18.566406 61.988281 16.632812 Z M 60.480469 91.925781 C 59.148438 91.449219 57.839844 90.972656 56.558594 90.496094 C 57.035156 88.332031 57.210938 86.246094 57.160156 84.257812 Z M 56.960938 91.550781 C 58.265625 92.027344 59.597656 92.503906 60.957031 92.984375 L 61.460938 94.113281 C 60.605469 94.59375 59.824219 95.070312 59.171875 95.496094 L 52.460938 95.496094 C 53.992188 94.441406 55.527344 93.132812 56.960938 91.550781 Z M 44.839844 86.699219 C 48.160156 88.132812 51.804688 89.613281 55.652344 91.074219 C 52.308594 91.398438 45.117188 92.457031 39.085938 95.523438 L 28.800781 95.523438 C 33.730469 94.566406 39.890625 92.230469 44.839844 86.699219 Z M 44.839844 86.699219 "/></g><g clip-rule="nonzero" clip-path="url(#23f5e14d53)"><path style=" stroke:none;fill-rule:nonzero;fill:#153129;fill-opacity:1;" d="M 0.015625 145.675781 L 0.015625 150.882812 L 86.019531 150.882812 L 98.515625 179.742188 L 103.292969 179.742188 L 115.160156 150.882812 L 203.929688 150.882812 L 203.929688 145.675781 Z M 0.015625 145.675781 "/></g><g style="fill:#153129;fill-opacity:1;"><g transform="translate(37.858839, 130.987955)"><path style="stroke:none" d="M 8.90625 0.265625 C 8.488281 0.265625 8.171875 0.148438 7.953125 -0.078125 C 7.742188 -0.316406 7.640625 -0.601562 7.640625 -0.9375 C 7.640625 -1.269531 7.738281 -1.550781 7.9375 -1.78125 C 8.144531 -2.019531 8.46875 -2.140625 8.90625 -2.140625 C 9.488281 -2.140625 9.976562 -2.0625 10.375 -1.90625 C 10.78125 -1.75 11.148438 -1.75 11.484375 -1.90625 C 11.984375 -2.15625 12.578125 -2.65625 13.265625 -3.40625 C 13.960938 -4.15625 14.6875 -5.066406 15.4375 -6.140625 C 16.1875 -7.222656 16.921875 -8.398438 17.640625 -9.671875 C 18.359375 -10.953125 19 -12.25 19.5625 -13.5625 C 20.132812 -14.882812 20.5625 -16.164062 20.84375 -17.40625 C 21.132812 -18.644531 21.234375 -19.765625 21.140625 -20.765625 C 21.046875 -21.765625 20.691406 -22.570312 20.078125 -23.1875 C 19.378906 -23.914062 18.519531 -24.328125 17.5 -24.421875 C 16.488281 -24.523438 15.398438 -24.390625 14.234375 -24.015625 C 13.066406 -23.640625 11.882812 -23.09375 10.6875 -22.375 C 9.5 -21.664062 8.367188 -20.84375 7.296875 -19.90625 C 6.273438 -19.019531 5.347656 -18.082031 4.515625 -17.09375 C 3.679688 -16.101562 3.019531 -15.125 2.53125 -14.15625 C 2.050781 -13.195312 1.789062 -12.300781 1.75 -11.46875 C 1.71875 -10.644531 1.972656 -9.957031 2.515625 -9.40625 C 3.015625 -8.882812 3.675781 -8.554688 4.5 -8.421875 C 5.320312 -8.285156 6.203125 -8.367188 7.140625 -8.671875 C 8.085938 -8.984375 9.015625 -9.53125 9.921875 -10.3125 C 10.828125 -11.09375 11.640625 -12.148438 12.359375 -13.484375 C 13.078125 -14.816406 13.601562 -16.445312 13.9375 -18.375 C 14.03125 -18.875 14.21875 -19.21875 14.5 -19.40625 C 14.789062 -19.601562 15.085938 -19.664062 15.390625 -19.59375 C 15.703125 -19.53125 15.941406 -19.34375 16.109375 -19.03125 C 16.273438 -18.726562 16.289062 -18.335938 16.15625 -17.859375 C 15.570312 -15.890625 14.800781 -14.234375 13.84375 -12.890625 C 12.882812 -11.546875 11.847656 -10.484375 10.734375 -9.703125 C 9.617188 -8.921875 8.503906 -8.378906 7.390625 -8.078125 C 6.285156 -7.785156 5.269531 -7.695312 4.34375 -7.8125 C 3.425781 -7.925781 2.679688 -8.195312 2.109375 -8.625 C 1.066406 -9.445312 0.414062 -10.382812 0.15625 -11.4375 C -0.101562 -12.5 -0.046875 -13.601562 0.328125 -14.75 C 0.703125 -15.894531 1.3125 -17.03125 2.15625 -18.15625 C 3.007812 -19.28125 4.019531 -20.320312 5.1875 -21.28125 C 6.382812 -22.28125 7.679688 -23.128906 9.078125 -23.828125 C 10.484375 -24.535156 11.894531 -25.035156 13.3125 -25.328125 C 14.726562 -25.628906 16.078125 -25.644531 17.359375 -25.375 C 18.648438 -25.113281 19.773438 -24.507812 20.734375 -23.5625 C 22.023438 -22.257812 22.75 -20.796875 22.90625 -19.171875 C 23.070312 -17.546875 22.757812 -15.796875 21.96875 -13.921875 C 21.1875 -12.046875 20.015625 -10.09375 18.453125 -8.0625 C 16.898438 -6.03125 15.046875 -3.957031 12.890625 -1.84375 C 13.003906 -1.59375 13.4375 -1.613281 14.1875 -1.90625 C 14.9375 -2.207031 15.882812 -2.707031 17.03125 -3.40625 C 18.175781 -4.113281 19.425781 -4.972656 20.78125 -5.984375 C 22.132812 -6.992188 23.492188 -8.09375 24.859375 -9.28125 C 26.222656 -10.476562 27.488281 -11.71875 28.65625 -13 C 29.820312 -14.289062 30.789062 -15.554688 31.5625 -16.796875 C 32.34375 -18.035156 32.8125 -19.195312 32.96875 -20.28125 C 33.082031 -20.96875 33.003906 -21.585938 32.734375 -22.140625 C 32.460938 -22.703125 32.148438 -23.25 31.796875 -23.78125 C 31.441406 -24.3125 31.171875 -24.882812 30.984375 -25.5 C 30.847656 -25.976562 30.863281 -26.363281 31.03125 -26.65625 C 31.207031 -26.957031 31.453125 -27.144531 31.765625 -27.21875 C 32.085938 -27.300781 32.398438 -27.269531 32.703125 -27.125 C 33.015625 -26.976562 33.238281 -26.695312 33.375 -26.28125 C 33.625 -25.445312 33.765625 -24.492188 33.796875 -23.421875 C 33.835938 -22.347656 33.820312 -21.347656 33.75 -20.421875 C 33.632812 -18.535156 33.195312 -16.769531 32.4375 -15.125 C 31.675781 -13.476562 30.6875 -11.953125 29.46875 -10.546875 C 28.257812 -9.148438 26.910156 -7.894531 25.421875 -6.78125 C 23.929688 -5.664062 22.390625 -4.691406 20.796875 -3.859375 C 19.203125 -3.035156 17.640625 -2.375 16.109375 -1.875 C 14.578125 -1.375 13.160156 -1.035156 11.859375 -0.859375 C 11.273438 -0.765625 10.75 -0.550781 10.28125 -0.21875 C 9.8125 0.101562 9.351562 0.265625 8.90625 0.265625 Z M 8.90625 0.265625 "/></g></g><g style="fill:#153129;fill-opacity:1;"><g transform="translate(66.460405, 130.987955)"><path style="stroke:none" d="M -0.953125 -0.265625 C -1.296875 -0.679688 -1.382812 -1.175781 -1.21875 -1.75 C -1.0625 -2.332031 -0.765625 -2.957031 -0.328125 -3.625 C 0.0976562 -4.300781 0.523438 -4.96875 0.953125 -5.625 C 1.429688 -6.375 1.894531 -7.125 2.34375 -7.875 C 2.800781 -8.625 3.304688 -9.375 3.859375 -10.125 C 4.054688 -10.394531 4.304688 -10.554688 4.609375 -10.609375 C 4.921875 -10.671875 5.207031 -10.632812 5.46875 -10.5 C 5.726562 -10.363281 5.890625 -10.144531 5.953125 -9.84375 C 6.023438 -9.550781 5.914062 -9.203125 5.625 -8.796875 C 5.414062 -8.523438 5.082031 -8.171875 4.625 -7.734375 C 4.175781 -7.304688 3.6875 -6.84375 3.15625 -6.34375 C 2.625 -5.84375 2.140625 -5.34375 1.703125 -4.84375 C 1.273438 -4.34375 0.976562 -3.867188 0.8125 -3.421875 C 0.65625 -2.984375 0.738281 -2.601562 1.0625 -2.28125 C 1.582031 -1.78125 2.378906 -1.800781 3.453125 -2.34375 C 4.535156 -2.894531 5.894531 -4.035156 7.53125 -5.765625 L 7.765625 -5.65625 C 6.992188 -4.65625 6.175781 -3.734375 5.3125 -2.890625 C 4.445312 -2.054688 3.601562 -1.367188 2.78125 -0.828125 C 1.96875 -0.296875 1.234375 0.03125 0.578125 0.15625 C -0.078125 0.28125 -0.585938 0.140625 -0.953125 -0.265625 Z M 6 -14.078125 C 6.363281 -14.597656 6.789062 -14.929688 7.28125 -15.078125 C 7.769531 -15.234375 8.195312 -15.1875 8.5625 -14.9375 C 8.894531 -14.707031 9.066406 -14.332031 9.078125 -13.8125 C 9.097656 -13.289062 8.9375 -12.789062 8.59375 -12.3125 C 8.25 -11.8125 7.832031 -11.484375 7.34375 -11.328125 C 6.851562 -11.179688 6.414062 -11.222656 6.03125 -11.453125 C 5.6875 -11.679688 5.515625 -12.0625 5.515625 -12.59375 C 5.515625 -13.132812 5.675781 -13.628906 6 -14.078125 Z M 6 -14.078125 "/></g></g><g style="fill:#153129;fill-opacity:1;"><g transform="translate(72.835206, 130.987955)"><path style="stroke:none" d="M 0.109375 -0.40625 C -0.535156 -0.925781 -0.796875 -1.585938 -0.671875 -2.390625 C -0.546875 -3.203125 -0.148438 -4.066406 0.515625 -4.984375 C 1.191406 -5.910156 2 -6.816406 2.9375 -7.703125 C 3.863281 -8.566406 4.789062 -9.253906 5.71875 -9.765625 C 6.65625 -10.273438 7.5 -10.59375 8.25 -10.71875 C 9 -10.84375 9.554688 -10.757812 9.921875 -10.46875 C 10.210938 -10.238281 10.359375 -9.921875 10.359375 -9.515625 C 10.429688 -9.628906 10.5 -9.742188 10.5625 -9.859375 C 10.632812 -9.972656 10.71875 -10.070312 10.8125 -10.15625 C 11.007812 -10.457031 11.265625 -10.628906 11.578125 -10.671875 C 11.898438 -10.710938 12.191406 -10.660156 12.453125 -10.515625 C 12.722656 -10.367188 12.890625 -10.140625 12.953125 -9.828125 C 13.023438 -9.523438 12.898438 -9.171875 12.578125 -8.765625 C 12.378906 -8.492188 12.054688 -8.148438 11.609375 -7.734375 C 11.160156 -7.328125 10.679688 -6.882812 10.171875 -6.40625 C 9.660156 -5.925781 9.1875 -5.445312 8.75 -4.96875 C 8.320312 -4.5 8.007812 -4.046875 7.8125 -3.609375 C 7.625 -3.179688 7.644531 -2.804688 7.875 -2.484375 C 8.332031 -1.828125 9.140625 -1.769531 10.296875 -2.3125 C 11.453125 -2.863281 12.863281 -4.023438 14.53125 -5.796875 L 14.765625 -5.65625 C 13.992188 -4.632812 13.179688 -3.703125 12.328125 -2.859375 C 11.472656 -2.023438 10.632812 -1.335938 9.8125 -0.796875 C 9 -0.265625 8.257812 0.0546875 7.59375 0.171875 C 6.9375 0.285156 6.414062 0.125 6.03125 -0.3125 C 5.738281 -0.644531 5.632812 -1.050781 5.71875 -1.53125 C 5.8125 -2.007812 6.007812 -2.519531 6.3125 -3.0625 C 5.5625 -2.25 4.800781 -1.566406 4.03125 -1.015625 C 3.269531 -0.472656 2.550781 -0.140625 1.875 -0.015625 C 1.195312 0.109375 0.609375 -0.0195312 0.109375 -0.40625 Z M 2.515625 -2.3125 C 2.816406 -1.976562 3.1875 -1.875 3.625 -2 C 4.070312 -2.125 4.546875 -2.390625 5.046875 -2.796875 C 5.546875 -3.203125 6.054688 -3.671875 6.578125 -4.203125 C 7.097656 -4.742188 7.578125 -5.253906 8.015625 -5.734375 C 8.304688 -6.179688 8.578125 -6.617188 8.828125 -7.046875 C 9.078125 -7.484375 9.335938 -7.921875 9.609375 -8.359375 C 9.796875 -8.785156 9.867188 -9.128906 9.828125 -9.390625 C 9.796875 -9.648438 9.691406 -9.863281 9.515625 -10.03125 C 9.171875 -10.320312 8.65625 -10.34375 7.96875 -10.09375 C 7.289062 -9.84375 6.570312 -9.425781 5.8125 -8.84375 C 5.050781 -8.269531 4.375 -7.628906 3.78125 -6.921875 C 3.082031 -6.097656 2.578125 -5.257812 2.265625 -4.40625 C 1.960938 -3.5625 2.046875 -2.863281 2.515625 -2.3125 Z M 2.515625 -2.3125 "/></g></g><g style="fill:#153129;fill-opacity:1;"><g transform="translate(86.232511, 130.987955)"><path style="stroke:none" d=""/></g></g><g style="fill:#153129;fill-opacity:1;"><g transform="translate(94.414068, 130.987955)"><path style="stroke:none" d="M 25.671875 3.140625 C 24.460938 3.140625 23.296875 2.800781 22.171875 2.125 C 21.046875 1.457031 19.96875 0.617188 18.9375 -0.390625 C 17.90625 -1.398438 16.910156 -2.414062 15.953125 -3.4375 C 14.660156 -2.257812 13.3125 -1.316406 11.90625 -0.609375 C 10.507812 0.0859375 9.097656 0.460938 7.671875 0.515625 C 6.847656 0.535156 5.992188 0.394531 5.109375 0.09375 C 4.222656 -0.195312 3.398438 -0.625 2.640625 -1.1875 C 1.878906 -1.757812 1.253906 -2.445312 0.765625 -3.25 C 0.273438 -4.0625 0.0195312 -4.96875 0 -5.96875 C -0.0195312 -6.894531 0.179688 -7.710938 0.609375 -8.421875 C 1.046875 -9.128906 1.601562 -9.707031 2.28125 -10.15625 C 2.96875 -10.613281 3.707031 -10.941406 4.5 -11.140625 C 5.289062 -11.347656 6.03125 -11.421875 6.71875 -11.359375 C 8.125 -11.222656 9.332031 -10.832031 10.34375 -10.1875 C 11.351562 -9.550781 12.300781 -8.757812 13.1875 -7.8125 C 14.082031 -6.875 15.03125 -5.847656 16.03125 -4.734375 C 17.25 -5.898438 18.328125 -7.269531 19.265625 -8.84375 C 20.210938 -10.425781 21.128906 -12.066406 22.015625 -13.765625 C 22.910156 -15.472656 23.859375 -17.085938 24.859375 -18.609375 C 25.972656 -20.359375 27.222656 -21.78125 28.609375 -22.875 C 29.992188 -23.96875 31.375 -24.664062 32.75 -24.96875 C 34.125 -25.28125 35.359375 -25.117188 36.453125 -24.484375 C 37.421875 -23.929688 38.050781 -23.117188 38.34375 -22.046875 C 38.644531 -20.984375 38.640625 -19.847656 38.328125 -18.640625 C 38.023438 -17.441406 37.453125 -16.34375 36.609375 -15.34375 C 35.566406 -14.070312 34.539062 -13.128906 33.53125 -12.515625 C 32.519531 -11.898438 31.578125 -11.539062 30.703125 -11.4375 C 29.828125 -11.332031 29.070312 -11.421875 28.4375 -11.703125 C 27.800781 -11.992188 27.320312 -12.410156 27 -12.953125 C 26.65625 -13.566406 26.570312 -14.25 26.75 -15 C 26.9375 -15.75 27.332031 -16.5 27.9375 -17.25 C 28.539062 -18 29.304688 -18.671875 30.234375 -19.265625 C 31.171875 -19.859375 32.21875 -20.300781 33.375 -20.59375 C 33.8125 -20.707031 34.15625 -20.675781 34.40625 -20.5 C 34.65625 -20.332031 34.8125 -20.109375 34.875 -19.828125 C 34.945312 -19.546875 34.925781 -19.289062 34.8125 -19.0625 C 34.695312 -18.832031 34.476562 -18.695312 34.15625 -18.65625 C 33.113281 -18.507812 32.128906 -18.265625 31.203125 -17.921875 C 30.285156 -17.585938 29.507812 -17.171875 28.875 -16.671875 C 28.238281 -16.171875 27.804688 -15.632812 27.578125 -15.0625 C 27.347656 -14.5 27.40625 -13.921875 27.75 -13.328125 C 27.90625 -13.054688 28.15625 -12.847656 28.5 -12.703125 C 28.84375 -12.554688 29.300781 -12.535156 29.875 -12.640625 C 30.457031 -12.753906 31.148438 -13.082031 31.953125 -13.625 C 32.765625 -14.175781 33.707031 -15.03125 34.78125 -16.1875 C 35.726562 -17.238281 36.394531 -18.28125 36.78125 -19.3125 C 37.164062 -20.34375 37.296875 -21.265625 37.171875 -22.078125 C 37.046875 -22.898438 36.664062 -23.492188 36.03125 -23.859375 C 34.445312 -24.753906 32.550781 -24.269531 30.34375 -22.40625 C 28.132812 -20.539062 25.75 -17.34375 23.1875 -12.8125 C 22.25 -11.175781 21.234375 -9.613281 20.140625 -8.125 C 19.054688 -6.632812 17.890625 -5.289062 16.640625 -4.09375 C 17.484375 -3.269531 18.476562 -2.476562 19.625 -1.71875 C 20.769531 -0.957031 21.96875 -0.328125 23.21875 0.171875 C 24.46875 0.671875 25.6875 0.941406 26.875 0.984375 C 28.070312 1.035156 29.148438 0.753906 30.109375 0.140625 C 30.535156 -0.128906 30.765625 -0.460938 30.796875 -0.859375 C 30.835938 -1.265625 30.820312 -1.703125 30.75 -2.171875 C 30.6875 -2.648438 30.6875 -3.117188 30.75 -3.578125 C 30.863281 -4.191406 31.109375 -4.554688 31.484375 -4.671875 C 31.859375 -4.785156 32.21875 -4.726562 32.5625 -4.5 C 32.90625 -4.269531 33.039062 -3.914062 32.96875 -3.4375 C 32.925781 -2.96875 32.753906 -2.367188 32.453125 -1.640625 C 32.160156 -0.910156 31.722656 -0.179688 31.140625 0.546875 C 30.566406 1.273438 29.828125 1.890625 28.921875 2.390625 C 28.023438 2.890625 26.941406 3.140625 25.671875 3.140625 Z M 0.6875 -6.109375 C 0.6875 -5.078125 1.066406 -4.238281 1.828125 -3.59375 C 2.585938 -2.945312 3.566406 -2.46875 4.765625 -2.15625 C 5.972656 -1.851562 7.226562 -1.703125 8.53125 -1.703125 C 9.9375 -1.703125 11.1875 -1.921875 12.28125 -2.359375 C 13.382812 -2.804688 14.394531 -3.394531 15.3125 -4.125 L 15.171875 -4.265625 C 14.210938 -5.285156 13.328125 -6.109375 12.515625 -6.734375 C 11.710938 -7.359375 10.863281 -7.835938 9.96875 -8.171875 C 9.070312 -8.515625 8.019531 -8.769531 6.8125 -8.9375 C 5.65625 -9.09375 4.613281 -9.070312 3.6875 -8.875 C 2.769531 -8.6875 2.039062 -8.351562 1.5 -7.875 C 0.957031 -7.394531 0.6875 -6.804688 0.6875 -6.109375 Z M 0.6875 -6.109375 "/></g></g><g style="fill:#153129;fill-opacity:1;"><g transform="translate(129.15152, 130.987955)"><path style="stroke:none" d="M 6.03125 -0.265625 C 5.6875 -0.679688 5.597656 -1.175781 5.765625 -1.75 C 5.941406 -2.332031 6.222656 -2.941406 6.609375 -3.578125 C 5.703125 -2.617188 4.785156 -1.804688 3.859375 -1.140625 C 2.941406 -0.472656 2.113281 -0.0507812 1.375 0.125 C 0.632812 0.3125 0.0625 0.179688 -0.34375 -0.265625 C -0.6875 -0.679688 -0.773438 -1.175781 -0.609375 -1.75 C -0.453125 -2.332031 -0.160156 -2.957031 0.265625 -3.625 C 0.703125 -4.300781 1.132812 -4.96875 1.5625 -5.625 C 2.039062 -6.375 2.503906 -7.125 2.953125 -7.875 C 3.410156 -8.625 3.914062 -9.375 4.46875 -10.125 C 4.664062 -10.394531 4.914062 -10.554688 5.21875 -10.609375 C 5.53125 -10.671875 5.816406 -10.632812 6.078125 -10.5 C 6.347656 -10.363281 6.515625 -10.144531 6.578125 -9.84375 C 6.648438 -9.550781 6.535156 -9.203125 6.234375 -8.796875 C 6.035156 -8.523438 5.707031 -8.171875 5.25 -7.734375 C 4.789062 -7.304688 4.296875 -6.84375 3.765625 -6.34375 C 3.234375 -5.84375 2.75 -5.34375 2.3125 -4.84375 C 1.882812 -4.34375 1.585938 -3.867188 1.421875 -3.421875 C 1.265625 -2.984375 1.347656 -2.601562 1.671875 -2.28125 C 2.171875 -1.78125 2.929688 -1.773438 3.953125 -2.265625 C 4.972656 -2.753906 6.242188 -3.796875 7.765625 -5.390625 L 7.9375 -5.625 C 8.414062 -6.375 8.882812 -7.125 9.34375 -7.875 C 9.800781 -8.625 10.300781 -9.375 10.84375 -10.125 C 11.050781 -10.394531 11.304688 -10.554688 11.609375 -10.609375 C 11.910156 -10.671875 12.191406 -10.632812 12.453125 -10.5 C 12.722656 -10.363281 12.890625 -10.144531 12.953125 -9.84375 C 13.023438 -9.550781 12.910156 -9.203125 12.609375 -8.796875 C 12.410156 -8.523438 12.082031 -8.171875 11.625 -7.734375 C 11.164062 -7.304688 10.671875 -6.84375 10.140625 -6.34375 C 9.609375 -5.84375 9.125 -5.34375 8.6875 -4.84375 C 8.257812 -4.34375 7.960938 -3.867188 7.796875 -3.421875 C 7.640625 -2.984375 7.722656 -2.601562 8.046875 -2.28125 C 8.566406 -1.78125 9.363281 -1.800781 10.4375 -2.34375 C 11.519531 -2.894531 12.882812 -4.035156 14.53125 -5.765625 L 14.765625 -5.65625 C 13.992188 -4.65625 13.175781 -3.734375 12.3125 -2.890625 C 11.445312 -2.054688 10.601562 -1.367188 9.78125 -0.828125 C 8.96875 -0.296875 8.226562 0.03125 7.5625 0.15625 C 6.90625 0.28125 6.394531 0.140625 6.03125 -0.265625 Z M 6.03125 -0.265625 "/></g></g><g style="fill:#153129;fill-opacity:1;"><g transform="translate(142.378466, 130.987955)"><path style="stroke:none" d="M -0.953125 -0.265625 C -1.296875 -0.679688 -1.382812 -1.175781 -1.21875 -1.75 C -1.0625 -2.332031 -0.765625 -2.957031 -0.328125 -3.625 C 0.0976562 -4.300781 0.523438 -4.96875 0.953125 -5.625 C 1.429688 -6.375 1.894531 -7.125 2.34375 -7.875 C 2.800781 -8.625 3.304688 -9.375 3.859375 -10.125 C 4.054688 -10.394531 4.304688 -10.554688 4.609375 -10.609375 C 4.921875 -10.671875 5.207031 -10.632812 5.46875 -10.5 C 5.726562 -10.363281 5.890625 -10.144531 5.953125 -9.84375 C 6.023438 -9.550781 5.914062 -9.203125 5.625 -8.796875 C 5.414062 -8.523438 5.082031 -8.171875 4.625 -7.734375 C 4.175781 -7.304688 3.6875 -6.84375 3.15625 -6.34375 C 2.625 -5.84375 2.140625 -5.34375 1.703125 -4.84375 C 1.273438 -4.34375 0.976562 -3.867188 0.8125 -3.421875 C 0.65625 -2.984375 0.738281 -2.601562 1.0625 -2.28125 C 1.582031 -1.78125 2.378906 -1.800781 3.453125 -2.34375 C 4.535156 -2.894531 5.894531 -4.035156 7.53125 -5.765625 L 7.765625 -5.65625 C 6.992188 -4.65625 6.175781 -3.734375 5.3125 -2.890625 C 4.445312 -2.054688 3.601562 -1.367188 2.78125 -0.828125 C 1.96875 -0.296875 1.234375 0.03125 0.578125 0.15625 C -0.078125 0.28125 -0.585938 0.140625 -0.953125 -0.265625 Z M 6 -14.078125 C 6.363281 -14.597656 6.789062 -14.929688 7.28125 -15.078125 C 7.769531 -15.234375 8.195312 -15.1875 8.5625 -14.9375 C 8.894531 -14.707031 9.066406 -14.332031 9.078125 -13.8125 C 9.097656 -13.289062 8.9375 -12.789062 8.59375 -12.3125 C 8.25 -11.8125 7.832031 -11.484375 7.34375 -11.328125 C 6.851562 -11.179688 6.414062 -11.222656 6.03125 -11.453125 C 5.6875 -11.679688 5.515625 -12.0625 5.515625 -12.59375 C 5.515625 -13.132812 5.675781 -13.628906 6 -14.078125 Z M 6 -14.078125 "/></g></g><g style="fill:#153129;fill-opacity:1;"><g transform="translate(148.650972, 130.987955)"><path style="stroke:none" d="M 4.703125 -0.34375 C 4.296875 -0.789062 4.140625 -1.285156 4.234375 -1.828125 C 4.335938 -2.378906 4.59375 -2.953125 5 -3.546875 C 5.414062 -4.140625 5.890625 -4.71875 6.421875 -5.28125 C 6.960938 -5.851562 7.46875 -6.390625 7.9375 -6.890625 C 8.414062 -7.390625 8.78125 -7.820312 9.03125 -8.1875 C 9.28125 -8.550781 9.304688 -8.820312 9.109375 -9 C 8.828125 -9.269531 8.40625 -9.25 7.84375 -8.9375 C 7.289062 -8.632812 6.675781 -8.15625 6 -7.5 C 5.320312 -6.84375 4.617188 -6.101562 3.890625 -5.28125 C 3.085938 -4.394531 2.328125 -3.507812 1.609375 -2.625 C 0.898438 -1.738281 0.316406 -1.035156 -0.140625 -0.515625 C -0.472656 -0.0976562 -0.835938 0.0820312 -1.234375 0.03125 C -1.640625 -0.0078125 -1.925781 -0.207031 -2.09375 -0.5625 C -2.269531 -0.914062 -2.195312 -1.316406 -1.875 -1.765625 C -1.664062 -2.046875 -1.367188 -2.4375 -0.984375 -2.9375 C -0.597656 -3.4375 -0.195312 -3.96875 0.21875 -4.53125 C 0.644531 -5.101562 1.003906 -5.601562 1.296875 -6.03125 C 1.753906 -6.71875 2.109375 -7.257812 2.359375 -7.65625 C 2.609375 -8.050781 2.828125 -8.410156 3.015625 -8.734375 C 3.210938 -9.066406 3.445312 -9.453125 3.71875 -9.890625 C 3.96875 -10.296875 4.257812 -10.550781 4.59375 -10.65625 C 4.9375 -10.757812 5.238281 -10.742188 5.5 -10.609375 C 5.757812 -10.472656 5.910156 -10.242188 5.953125 -9.921875 C 6.003906 -9.597656 5.875 -9.234375 5.5625 -8.828125 C 5.125 -8.265625 4.535156 -7.65625 3.796875 -7 C 3.054688 -6.351562 2.378906 -5.644531 1.765625 -4.875 C 1.316406 -4.300781 0.9375 -3.800781 0.625 -3.375 C 0.320312 -2.945312 0.25 -2.675781 0.40625 -2.5625 C 0.539062 -2.46875 0.796875 -2.613281 1.171875 -3 C 1.546875 -3.382812 2.003906 -3.898438 2.546875 -4.546875 C 3.097656 -5.191406 3.660156 -5.835938 4.234375 -6.484375 C 4.816406 -7.140625 5.414062 -7.78125 6.03125 -8.40625 C 6.644531 -9.03125 7.238281 -9.5625 7.8125 -10 C 8.394531 -10.445312 8.945312 -10.734375 9.46875 -10.859375 C 10 -10.984375 10.457031 -10.863281 10.84375 -10.5 C 11.207031 -10.15625 11.34375 -9.734375 11.25 -9.234375 C 11.15625 -8.734375 10.921875 -8.195312 10.546875 -7.625 C 10.171875 -7.0625 9.742188 -6.484375 9.265625 -5.890625 C 8.796875 -5.304688 8.347656 -4.75 7.921875 -4.21875 C 7.503906 -3.695312 7.195312 -3.234375 7 -2.828125 C 6.8125 -2.421875 6.816406 -2.113281 7.015625 -1.90625 C 7.316406 -1.632812 7.816406 -1.597656 8.515625 -1.796875 C 9.222656 -2.003906 10.039062 -2.441406 10.96875 -3.109375 C 11.90625 -3.785156 12.863281 -4.644531 13.84375 -5.6875 L 14.046875 -5.484375 C 13.222656 -4.554688 12.359375 -3.679688 11.453125 -2.859375 C 10.546875 -2.046875 9.65625 -1.363281 8.78125 -0.8125 C 7.90625 -0.269531 7.109375 0.0546875 6.390625 0.171875 C 5.671875 0.285156 5.109375 0.113281 4.703125 -0.34375 Z M 4.703125 -0.34375 "/></g></g><g style="fill:#153129;fill-opacity:1;"><g transform="translate(161.196027, 130.987955)"><path style="stroke:none" d="M 0.40625 -0.140625 C -0.25 -0.660156 -0.566406 -1.316406 -0.546875 -2.109375 C -0.523438 -2.910156 -0.253906 -3.773438 0.265625 -4.703125 C 0.796875 -5.640625 1.476562 -6.570312 2.3125 -7.5 C 3.15625 -8.4375 4.019531 -9.1875 4.90625 -9.75 C 5.789062 -10.320312 6.617188 -10.675781 7.390625 -10.8125 C 8.171875 -10.945312 8.800781 -10.820312 9.28125 -10.4375 C 9.957031 -9.914062 10.179688 -9.066406 9.953125 -7.890625 C 9.722656 -6.722656 9.144531 -5.503906 8.21875 -4.234375 C 8.375 -3.984375 8.691406 -3.84375 9.171875 -3.8125 C 9.648438 -3.789062 10.234375 -3.96875 10.921875 -4.34375 C 11.617188 -4.71875 12.34375 -5.335938 13.09375 -6.203125 L 13.296875 -6 C 12.453125 -4.90625 11.664062 -4.109375 10.9375 -3.609375 C 10.21875 -3.109375 9.550781 -2.828125 8.9375 -2.765625 C 8.320312 -2.710938 7.765625 -2.800781 7.265625 -3.03125 C 6.460938 -2.125 5.617188 -1.382812 4.734375 -0.8125 C 3.847656 -0.25 3.023438 0.09375 2.265625 0.21875 C 1.503906 0.34375 0.882812 0.222656 0.40625 -0.140625 Z M 2.3125 -2.421875 C 2.84375 -1.984375 3.5 -1.867188 4.28125 -2.078125 C 5.0625 -2.285156 5.863281 -2.738281 6.6875 -3.4375 C 6.570312 -3.570312 6.453125 -3.757812 6.328125 -4 C 6.203125 -4.238281 6.160156 -4.550781 6.203125 -4.9375 C 6.242188 -5.320312 6.4375 -5.765625 6.78125 -6.265625 C 7.144531 -6.796875 7.476562 -7.113281 7.78125 -7.21875 C 8.09375 -7.332031 8.367188 -7.335938 8.609375 -7.234375 C 8.847656 -7.140625 9.023438 -7.023438 9.140625 -6.890625 C 9.367188 -7.503906 9.457031 -8.046875 9.40625 -8.515625 C 9.363281 -8.992188 9.21875 -9.347656 8.96875 -9.578125 C 8.601562 -9.898438 8.132812 -10.039062 7.5625 -10 C 7 -9.96875 6.410156 -9.773438 5.796875 -9.421875 C 5.179688 -9.078125 4.613281 -8.597656 4.09375 -7.984375 C 3.5 -7.273438 3.003906 -6.550781 2.609375 -5.8125 C 2.210938 -5.070312 1.976562 -4.398438 1.90625 -3.796875 C 1.84375 -3.191406 1.976562 -2.734375 2.3125 -2.421875 Z M 2.3125 -2.421875 "/></g></g></g></svg>